<?xml version="1.0" encoding="utf-8"?>
<!-- Svg Vector Icons : http://www.onlinewebfonts.com/icon -->
<!DOCTYPE svg PUBLIC "-//W3C//DTD SVG 1.1//EN" "http://www.w3.org/Graphics/SVG/1.1/DTD/svg11.dtd">
<svg version="1.1" xmlns="http://www.w3.org/2000/svg" xmlns:xlink="http://www.w3.org/1999/xlink" x="0px" y="0px" viewBox="0 0 1000 1000" enable-background="new 0 0 1000 1000" xml:space="preserve">
<metadata> Svg Vector Icons : http://www.onlinewebfonts.com/icon </metadata>
<g><path d="M573.5,10h-147C413,10,402,21,402,34.5v147c0,13.5,11,24.5,24.5,24.5h147c13.5,0,24.5-11,24.5-24.5v-147C598,21,587,10,573.5,10z M573.5,402h-147c-13.5,0-24.5,11-24.5,24.5v147c0,13.5,11,24.5,24.5,24.5h147c13.5,0,24.5-11,24.5-24.5v-147C598,413,587,402,573.5,402z M573.5,794h-147c-13.5,0-24.5,11-24.5,24.5v147c0,13.5,11,24.5,24.5,24.5h147c13.5,0,24.5-11,24.5-24.5v-147C598,805,587,794,573.5,794z"/></g>
</svg>